<?xml version="1.0" encoding="utf-8"?>
<!-- Generator: Adobe Illustrator 21.1.0, SVG Export Plug-In . SVG Version: 6.00 Build 0)  -->
<svg version="1.1" id="Layer_1" xmlns="http://www.w3.org/2000/svg" xmlns:xlink="http://www.w3.org/1999/xlink" x="0px" y="0px"
	 viewBox="0 0 1782 1170" style="enable-background:new 0 0 1782 1170;" xml:space="preserve">
<style type="text/css">
	.st0{fill:url(#SVGID_1_);}
	.st1{fill:url(#SVGID_2_);}
	.st2{fill:#D94064;}
	.st3{fill:#007FB7;}
	.st4{fill:#FFFFFF;}
	.st5{fill:#97CC82;}
	.st6{fill:#ABD7B1;}
	.st7{fill:#FAB42E;}
</style>
<radialGradient id="SVGID_1_" cx="419.318" cy="1127.7269" r="753.7567" gradientTransform="matrix(-4.489659e-11 1 1 4.489659e-11 -236.9769 165.682)" gradientUnits="userSpaceOnUse">
	<stop  offset="0" style="stop-color:#69BB4C"/>
	<stop  offset="0.2206" style="stop-color:#5DB44A"/>
	<stop  offset="0.6179" style="stop-color:#3DA345"/>
	<stop  offset="1" style="stop-color:#198F40"/>
</radialGradient>
<rect x="-0.3" y="-0.2" class="st0" width="1782" height="1170.3"/>
<radialGradient id="SVGID_2_" cx="419.3179" cy="1127.6271" r="700.55" gradientTransform="matrix(-4.489659e-11 1 1 4.489659e-11 -236.9769 165.682)" gradientUnits="userSpaceOnUse">
	<stop  offset="0" style="stop-color:#69BB4C"/>
	<stop  offset="0.2206" style="stop-color:#5DB44A"/>
	<stop  offset="0.6179" style="stop-color:#3DA345"/>
	<stop  offset="1" style="stop-color:#198F40"/>
</radialGradient>
<rect x="50.9" y="59.3" class="st1" width="1679.5" height="1051.4"/>
<g>
	<rect x="1595" y="59.3" class="st2" width="135.4" height="1051.4"/>
	<rect x="50.9" y="59.3" class="st3" width="135.4" height="1051.4"/>
</g>
<g>
	<rect x="215.9" y="566.4" class="st4" width="11.9" height="37.3"/>
	<rect x="1553.6" y="566.4" class="st4" width="11.9" height="37.3"/>
</g>
<g>
	<g>
		<rect x="315.8" y="57" class="st4" width="11.8" height="1056"/>
		<rect x="458.1" y="57" class="st4" width="11.8" height="1056"/>
	</g>
	<rect x="600.3" y="57" class="st4" width="11.8" height="1056"/>
	<rect x="742.5" y="57" class="st4" width="11.8" height="1056"/>
	<g>
		<rect x="884.8" y="57" class="st4" width="11.8" height="1056"/>
		<rect x="1027" y="57" class="st4" width="11.8" height="1056"/>
	</g>
	<rect x="1169.2" y="57" class="st4" width="11.8" height="1056"/>
	<rect x="1311.4" y="57" class="st4" width="11.8" height="1056"/>
	<rect x="1453.7" y="57" class="st4" width="11.8" height="1056"/>
</g>
<g>
	<g>
		<path class="st4" d="M299.2,954.1c-1.9,0.6-3.6,0.9-4.9,0.9c-0.7,0-1-0.3-1-1v-1.2c0-0.5,0.1-0.8,0.3-1c0.2-0.2,0.7-0.5,1.4-0.8
			c1-0.4,2.5-1.2,4.2-2.4c1.8-1.2,3.5-2.8,5.2-4.7c1.3-1.5,2.1-2.4,2.3-2.5c0.3-0.1,0.7-0.2,1.2-0.2h2.7v42.4c0,0.4,0.4,0.8,1.1,1.1
			c0.6,0.3,1,0.6,1.1,0.9c0.1,0.3,0.2,1.1,0.2,2.4c0,0.5-0.4,0.8-1.2,0.8H297c-0.6,0-1-0.1-1.2-0.3c-0.1-0.2-0.2-0.6-0.2-1.3
			c0-1,0.1-1.6,0.2-1.8c0.1-0.2,0.6-0.5,1.4-0.7c1.2-0.3,1.8-0.8,1.8-1.4v-29.2H299.2z"/>
		<path class="st4" d="M346.5,941c2.7,0,5.3,1,7.6,3c2.3,2,4.1,4.8,5.2,8.3c1.2,3.5,1.8,7.6,1.8,12.4c0,8-1.5,14-4.4,18.1
			c-2.9,4.1-6.5,6.1-10.7,6.1c-3.9,0-7.4-1.9-10.2-5.8c-2.9-3.9-4.3-9.9-4.3-17.9s1.4-14,4.2-18.1C338.6,943.1,342.2,941,346.5,941z
			 M348.6,948.5c0-1.4-0.2-2.4-0.5-2.9c-0.4-0.6-1-0.8-1.8-0.8c-1.6,0-2.4,1.2-2.4,3.7v33.9c0,1.9,0.8,2.9,2.3,2.9
			c0.7,0,1.3-0.3,1.8-0.8c0.4-0.6,0.7-1.2,0.7-2v-34H348.6z"/>
		<path class="st4" d="M435.1,980h16.2c0.7,0,1.3-0.3,1.7-0.8c0.4-0.5,0.8-1.4,1.1-2.8c0.1-0.6,0.3-1,0.6-1.1
			c0.3-0.2,0.9-0.3,1.8-0.3c1.3,0,2,0.3,2,0.8c0,0.2,0,0.4-0.1,0.6c-0.1,0.5-0.4,1.8-0.7,3.8c-0.4,2.2-0.8,4.1-1.1,5.7
			c-0.4,1.6-0.7,2.5-0.8,2.7c-0.2,0.2-0.7,0.2-1.5,0.2h-25.5V982c0-1,0.9-2.1,2.7-3.6c0.9-0.7,3-3,6.3-6.7c3.3-3.7,5.4-6.8,6.4-9.1
			c1-2.4,1.4-5.5,1.4-9.4c0-3.3-0.3-5.4-1-6.4s-1.7-1.4-3-1.4c-1,0-1.8,0.3-2.3,0.8c-0.6,0.5-0.8,1.1-0.8,2c0,0.5,0.1,1,0.2,1.7
			c0.1,0.9,0.2,1.7,0.2,2.5c0,1.8-0.4,3.1-1.3,4.1s-2,1.5-3.4,1.5s-2.6-0.5-3.5-1.6c-0.9-1.1-1.3-2.3-1.3-3.8c0-3.1,1.3-5.7,3.8-7.9
			c2.5-2.1,5.9-3.2,10.2-3.2c4.3,0,7.9,1.2,10.7,3.7c2.8,2.5,4.2,5.7,4.2,9.6c0,2.2-0.5,4.3-1.5,6.3s-2.3,3.8-4,5.3
			c-1.7,1.6-4.2,3.5-7.5,5.8C440.4,975.3,437.1,977.9,435.1,980z"/>
		<path class="st4" d="M488.9,941c2.8,0,5.3,1,7.6,3c2.3,2,4,4.8,5.2,8.3s1.7,7.6,1.7,12.4c0,8-1.4,14-4.4,18.1
			c-2.9,4.1-6.5,6.1-10.7,6.1c-4,0-7.4-2-10.2-5.8c-2.9-3.9-4.3-9.9-4.3-17.9s1.4-14,4.2-18.1C481,943.1,484.6,941,488.9,941z
			 M490.9,948.5c0-1.4-0.2-2.4-0.5-2.9c-0.4-0.6-0.9-0.8-1.8-0.8c-1.6,0-2.4,1.2-2.4,3.7v33.9c0,1.9,0.8,2.9,2.3,2.9
			c0.7,0,1.3-0.3,1.8-0.8c0.5-0.6,0.7-1.2,0.7-2v-34H490.9z"/>
		<path class="st4" d="M589.4,963.3c7.7,1.8,11.6,5.9,11.6,12.3c0,2.7-0.7,5.1-2.1,7.2c-1.4,2.1-3.4,3.6-5.9,4.7s-5.1,1.7-7.9,1.7
			c-3.8,0-6.8-1-9-3.1c-2.3-2.1-3.4-4.6-3.4-7.4c0-1.4,0.4-2.6,1.2-3.6s1.9-1.5,3.4-1.5c1.4,0,2.5,0.5,3.3,1.3
			c0.8,0.9,1.2,2,1.2,3.3c0,0.5-0.1,1.4-0.4,2.7c-0.1,0.5-0.2,1-0.2,1.5c0,0.8,0.3,1.6,0.9,2.1c0.6,0.6,1.4,0.9,2.4,0.9
			c1.4,0,2.3-0.5,3-1.5c0.6-1,1-2.7,1-4.9c0-0.6,0-1.2-0.1-1.8L588,970c-0.3-1.4-0.8-2.5-1.6-3.1c-0.7-0.7-1.5-1.1-2.3-1.2
			c-0.8-0.1-2.1-0.2-3.9-0.2l-0.9,0.1c-0.6,0-1-0.3-1-0.8l-0.1-1.3c0-0.1,0-0.3,0-0.4c0-0.9,0.5-1.3,1.4-1.3c2.5,0,4.2-0.2,5.3-0.6
			c1.1-0.4,1.8-1,2.1-1.8c0.4-0.8,0.5-2.5,0.5-5.1c0-3.7-0.2-6.2-0.6-7.4c-0.4-1.2-1.3-1.8-2.7-1.8c-0.8,0-1.5,0.3-2.1,0.7
			c-0.6,0.5-0.9,1.1-0.9,1.9c0,0.5,0.1,1.2,0.3,2.2c0.3,1.3,0.4,2.3,0.4,3.1c0,1.1-0.4,2-1.3,2.7c-0.8,0.7-1.8,1-3,1
			c-1.4,0-2.6-0.5-3.4-1.6c-0.8-1-1.2-2.3-1.2-3.9c0-2.7,1.2-5,3.4-7.1c2.3-2,5.4-3.1,9.3-3.1c4.5,0,7.9,1.2,10.3,3.8
			c2.3,2.5,3.5,5.3,3.5,8.2c0,2.4-0.8,4.4-2.4,6.3c-1.6,1.8-3.9,3.1-6.9,4H589.4z"/>
		<path class="st4" d="M631.9,941c2.8,0,5.3,1,7.6,3s4,4.8,5.2,8.3s1.8,7.6,1.8,12.4c0,8-1.4,14-4.4,18.1c-2.9,4.1-6.5,6.1-10.7,6.1
			c-4,0-7.4-1.9-10.2-5.8c-2.9-3.9-4.3-9.9-4.3-17.9s1.4-14,4.2-18.1C624,943.1,627.6,941,631.9,941z M633.9,948.5
			c0-1.4-0.2-2.4-0.5-2.9c-0.4-0.6-0.9-0.8-1.8-0.8c-1.6,0-2.4,1.2-2.4,3.7v33.9c0,1.9,0.7,2.9,2.2,2.9c0.7,0,1.3-0.3,1.8-0.8
			c0.5-0.6,0.7-1.2,0.7-2V948.5z"/>
		<path class="st4" d="M693.2,968.1v-6.3h12.7v6.3H693.2z"/>
		<path class="st4" d="M737.8,971.8h2.7c0.7,0,1.1,0.1,1.4,0.3c0.2,0.2,0.3,0.6,0.3,1.3v1.7c0,0.5-0.1,0.8-0.3,1
			c-0.2,0.2-0.6,0.3-1.3,0.3h-2.8v5.5c0,1.3,0.6,2.3,1.8,2.9c0.6,0.3,1,0.8,1,1.6v1.3c0,0.4-0.1,0.7-0.3,0.8
			c-0.2,0.1-0.6,0.2-1.2,0.2h-13.6c-0.6,0-1-0.1-1.2-0.3c-0.1-0.2-0.2-0.9-0.2-2.1c0-0.7,0.3-1.2,1-1.6c0.8-0.4,1.2-1,1.2-1.8v-6.6
			h-12.8c-0.7,0-1.1-0.1-1.2-0.2c-0.1-0.1-0.2-0.5-0.2-1v-3.4c0-0.4,0-0.6,0.1-0.8c0.1-0.2,0.5-0.9,1.4-2.2l18.1-26.3
			c0.3-0.5,0.7-0.8,1.2-0.9c0.5-0.2,1.3-0.3,2.5-0.3s1.9,0.1,2,0.2c0.2,0.1,0.3,0.5,0.3,1v29.4H737.8z M726.4,957.5l-9.9,14.3h9.9
			V957.5z"/>
		<path class="st4" d="M772.6,941c2.7,0,5.3,1,7.6,3s4.1,4.8,5.2,8.3c1.2,3.5,1.7,7.6,1.7,12.4c0,8-1.4,14-4.4,18.1
			c-2.9,4.1-6.5,6.2-10.6,6.2c-4,0-7.4-1.9-10.2-5.9c-2.9-3.9-4.3-9.9-4.3-17.9s1.4-14,4.2-18.1C764.8,943.1,768.4,941,772.6,941z
			 M774.7,948.5c0-1.4-0.2-2.3-0.5-2.9c-0.4-0.5-1-0.8-1.8-0.8c-1.6,0-2.4,1.2-2.4,3.7v33.9c0,1.9,0.8,2.9,2.3,2.9
			c0.7,0,1.3-0.3,1.8-0.9c0.5-0.5,0.7-1.2,0.7-2L774.7,948.5L774.7,948.5z"/>
		<path class="st4" d="M859.6,942h15.5c0.7,0,1.2-0.1,1.4-0.4c0.4-0.4,0.7-0.6,0.8-0.7c0.2-0.1,0.6-0.1,1.1-0.1
			c0.9,0,1.4,0.1,1.7,0.2c0.2,0.1,0.3,0.4,0.3,0.8c0,0.1,0,0.4-0.1,1l-0.6,6.2c-0.1,0.6-0.2,1-0.3,1.1c-0.2,0.2-0.6,0.3-1.2,0.3H863
			l-0.6,9c2.1-1.3,4.5-1.9,7.1-1.9c4.3,0,7.8,1.4,10.5,4.3c2.7,2.9,4,6.6,4,11.1c0,4.9-1.6,8.8-4.7,11.8c-3.1,3-7,4.5-11.7,4.5
			c-3.9,0-6.8-1.1-8.9-3.3c-2.1-2.2-3.1-4.5-3.1-6.9c0-1.4,0.4-2.5,1.2-3.6c0.8-1,1.9-1.5,3.4-1.5c1.3,0,2.3,0.4,3.1,1.2
			c0.8,0.8,1.2,1.9,1.2,3.3c0,0.6-0.1,1.3-0.3,2c-0.3,1.2-0.4,1.9-0.4,2.3c0,0.7,0.3,1.3,0.8,2c0.6,0.6,1.4,0.9,2.6,0.9
			c1,0,1.9-0.3,2.5-0.7c0.7-0.5,1.2-1.2,1.4-2c0.2-0.9,0.3-2.6,0.3-5.3l-0.1-5.2c0-4-0.3-6.8-1-8.2c-0.7-1.5-1.8-2.2-3.4-2.2
			c-2.3,0-3.9,1.3-4.9,4c-0.2,0.6-0.4,1-0.6,1.2c-0.2,0.2-0.6,0.3-1.2,0.3l-1.4,0.1c-0.8,0-1.2-0.3-1.2-0.8c0-0.2,0-0.5,0-0.8
			L859.6,942z"/>
		<path class="st4" d="M915.5,941c2.7,0,5.3,1,7.6,3s4.1,4.8,5.2,8.3c1.2,3.5,1.8,7.6,1.8,12.4c0,8-1.5,14-4.4,18.1
			c-2.9,4.1-6.5,6.1-10.6,6.1c-4,0-7.4-1.9-10.2-5.8c-2.9-3.9-4.3-9.9-4.3-17.9s1.4-14,4.2-18.1C907.6,943.1,911.2,941,915.5,941z
			 M917.5,948.5c0-1.4-0.2-2.4-0.5-2.9c-0.4-0.6-1-0.8-1.8-0.8c-1.6,0-2.4,1.2-2.4,3.7v33.9c0,1.9,0.8,2.9,2.3,2.9
			c0.7,0,1.3-0.3,1.8-0.8c0.5-0.6,0.7-1.2,0.7-2L917.5,948.5L917.5,948.5z"/>
		<path class="st4" d="M554.6,968.1v-6.3h12.7v6.3H554.6z"/>
		<path class="st4" d="M276.7,968.1v-6.3h12.7v6.3H276.7z"/>
		<path class="st4" d="M411.6,968.1v-6.3h12.7v6.3H411.6z"/>
		<path class="st4" d="M1437.7,954.1c-1.9,0.6-3.6,0.9-4.9,0.9c-0.7,0-1-0.3-1-1v-1.2c0-0.5,0.1-0.8,0.3-1c0.2-0.2,0.7-0.5,1.5-0.8
			c1-0.4,2.4-1.2,4.2-2.4c1.8-1.2,3.5-2.8,5.2-4.7c1.3-1.5,2.1-2.4,2.3-2.5c0.2-0.1,0.6-0.2,1.2-0.2h2.7v42.4c0,0.4,0.4,0.8,1.1,1.1
			c0.6,0.3,1,0.6,1.1,0.9s0.2,1.1,0.2,2.4c0,0.5-0.4,0.8-1.1,0.8h-14.8c-0.6,0-1-0.1-1.1-0.3s-0.2-0.6-0.2-1.3c0-1,0.1-1.6,0.2-1.8
			c0.1-0.2,0.6-0.5,1.3-0.7c1.2-0.3,1.8-0.8,1.8-1.4L1437.7,954.1L1437.7,954.1z"/>
		<path class="st4" d="M1485,941c2.8,0,5.3,1,7.6,3c2.3,2,4.1,4.8,5.2,8.3s1.7,7.6,1.7,12.4c0,8-1.5,14-4.4,18.1
			c-2.9,4.1-6.5,6.1-10.6,6.1c-4,0-7.4-1.9-10.2-5.8c-2.8-3.9-4.3-9.9-4.3-17.9s1.4-14,4.3-18.1C1477.2,943.1,1480.7,941,1485,941z
			 M1487.1,948.5c0-1.4-0.2-2.4-0.5-2.9c-0.4-0.6-0.9-0.8-1.8-0.8c-1.6,0-2.4,1.2-2.4,3.7v33.9c0,1.9,0.8,2.9,2.3,2.9
			c0.7,0,1.3-0.3,1.8-0.8c0.4-0.6,0.7-1.2,0.7-2L1487.1,948.5L1487.1,948.5z"/>
		<path class="st4" d="M1286.8,980h16.2c0.7,0,1.3-0.3,1.7-0.8c0.4-0.5,0.8-1.4,1.1-2.8c0.1-0.6,0.3-1,0.6-1.1
			c0.3-0.2,0.9-0.3,1.8-0.3c1.3,0,2,0.3,2,0.8c0,0.2,0,0.4-0.1,0.6c-0.1,0.5-0.4,1.8-0.7,3.8c-0.4,2.2-0.8,4.1-1.1,5.7
			c-0.4,1.6-0.7,2.5-0.8,2.7c-0.2,0.2-0.7,0.2-1.5,0.2h-25.5V982c0-1,0.9-2.1,2.7-3.6c0.9-0.7,3-3,6.3-6.7c3.3-3.7,5.4-6.8,6.4-9.1
			c0.9-2.4,1.5-5.5,1.5-9.4c0-3.3-0.4-5.4-1-6.4c-0.7-1-1.7-1.4-3-1.4c-1,0-1.8,0.3-2.3,0.8c-0.6,0.5-0.8,1.1-0.8,2
			c0,0.5,0.1,1,0.2,1.7c0.1,0.9,0.2,1.7,0.2,2.5c0,1.8-0.4,3.1-1.3,4.1s-2,1.5-3.4,1.5s-2.6-0.5-3.5-1.6c-0.8-1.1-1.3-2.3-1.3-3.8
			c0-3.1,1.3-5.7,3.8-7.9c2.5-2.1,5.9-3.2,10.2-3.2c4.3,0,7.9,1.2,10.7,3.7c2.8,2.5,4.2,5.7,4.2,9.6c0,2.2-0.5,4.3-1.5,6.3
			s-2.3,3.8-4.1,5.3c-1.7,1.6-4.2,3.5-7.5,5.8C1292.2,975.3,1288.9,977.9,1286.8,980z"/>
		<path class="st4" d="M1340.7,941c2.8,0,5.3,1,7.6,3c2.3,2,4.1,4.8,5.2,8.3c1.2,3.5,1.7,7.6,1.7,12.4c0,8-1.5,14-4.4,18.1
			c-2.9,4.1-6.5,6.1-10.7,6.1c-3.9,0-7.4-2-10.2-5.8c-2.9-3.9-4.3-9.9-4.3-17.9s1.4-14,4.2-18.1C1332.8,943.1,1336.4,941,1340.7,941
			z M1342.7,948.5c0-1.4-0.2-2.4-0.5-2.9c-0.4-0.6-0.9-0.8-1.8-0.8c-1.6,0-2.4,1.2-2.4,3.7v33.9c0,1.9,0.8,2.9,2.3,2.9
			c0.7,0,1.3-0.3,1.8-0.8c0.4-0.6,0.7-1.2,0.7-2L1342.7,948.5L1342.7,948.5z"/>
		<path class="st4" d="M1155.6,963.3c7.7,1.8,11.5,5.9,11.5,12.3c0,2.7-0.7,5.1-2.1,7.2c-1.4,2.1-3.4,3.6-5.9,4.7
			c-2.5,1.1-5.1,1.7-7.9,1.7c-3.8,0-6.8-1-9.1-3.1c-2.3-2.1-3.4-4.6-3.4-7.4c0-1.4,0.4-2.6,1.2-3.6c0.8-1,1.9-1.5,3.4-1.5
			c1.4,0,2.5,0.5,3.3,1.3c0.8,0.9,1.2,2,1.2,3.3c0,0.5-0.1,1.4-0.4,2.7c-0.1,0.5-0.2,1-0.2,1.5c0,0.8,0.3,1.6,0.9,2.1
			c0.6,0.6,1.4,0.9,2.4,0.9c1.4,0,2.3-0.5,3-1.5c0.6-1,1-2.7,1-4.9c0-0.6,0-1.2-0.1-1.8l-0.4-7.2c-0.3-1.4-0.8-2.5-1.6-3.1
			c-0.7-0.7-1.5-1.1-2.3-1.2c-0.8-0.1-2.1-0.2-3.9-0.2l-0.9,0.1c-0.6,0-1-0.3-1-0.8l-0.1-1.3c0-0.1,0-0.3,0-0.4
			c0-0.9,0.5-1.3,1.4-1.3c2.5,0,4.2-0.2,5.3-0.6c1-0.4,1.8-1,2.1-1.8c0.4-0.8,0.6-2.5,0.6-5.1c0-3.7-0.2-6.2-0.6-7.4
			c-0.4-1.2-1.3-1.8-2.7-1.8c-0.8,0-1.5,0.3-2.2,0.7c-0.6,0.5-0.9,1.1-0.9,1.9c0,0.5,0.1,1.2,0.3,2.2c0.3,1.3,0.4,2.3,0.4,3.1
			c0,1.1-0.4,2-1.3,2.7c-0.8,0.7-1.9,1-3,1c-1.5,0-2.6-0.5-3.4-1.6c-0.8-1-1.2-2.3-1.2-3.9c0-2.7,1.1-5,3.4-7.1
			c2.3-2,5.4-3.1,9.3-3.1c4.5,0,8,1.2,10.3,3.8c2.4,2.5,3.6,5.3,3.6,8.2c0,2.4-0.8,4.4-2.4,6.3c-1.6,1.8-3.9,3.1-6.9,4H1155.6z"/>
		<path class="st4" d="M1198.1,941c2.8,0,5.3,1,7.6,3c2.3,2,4.1,4.8,5.2,8.3s1.7,7.6,1.7,12.4c0,8-1.5,14-4.4,18.1
			c-2.9,4.1-6.5,6.1-10.6,6.1c-4,0-7.4-1.9-10.2-5.8c-2.9-3.9-4.3-9.9-4.3-17.9s1.4-14,4.3-18.1C1190.2,943.1,1193.8,941,1198.1,941
			z M1200.2,948.5c0-1.4-0.2-2.4-0.6-2.9c-0.3-0.6-0.9-0.8-1.8-0.8c-1.6,0-2.4,1.2-2.4,3.7v33.9c0,1.9,0.8,2.9,2.3,2.9
			c0.7,0,1.3-0.3,1.8-0.8c0.4-0.6,0.7-1.2,0.7-2V948.5z"/>
		<path class="st4" d="M1079.9,968.1v-6.3h12.7v6.3H1079.9z"/>
		<path class="st4" d="M1021,971.8h2.7c0.7,0,1.1,0.1,1.3,0.3c0.2,0.2,0.3,0.6,0.3,1.3v1.7c0,0.5-0.1,0.8-0.3,1
			c-0.2,0.2-0.6,0.3-1.2,0.3h-2.9v5.5c0,1.3,0.6,2.3,1.8,2.9c0.7,0.3,1,0.8,1,1.6v1.3c0,0.4-0.1,0.7-0.3,0.8
			c-0.2,0.1-0.6,0.2-1.2,0.2h-13.4c-0.7,0-1-0.1-1.2-0.3c-0.1-0.2-0.2-0.9-0.2-2.1c0-0.7,0.3-1.2,1-1.6c0.8-0.4,1.2-1,1.2-1.8v-6.6
			h-12.8c-0.7,0-1.1-0.1-1.2-0.2c-0.1-0.1-0.2-0.5-0.2-1v-3.4c0-0.4,0-0.6,0.1-0.8c0.1-0.2,0.5-0.9,1.4-2.2l18.1-26.3
			c0.3-0.5,0.7-0.8,1.2-0.9c0.5-0.2,1.3-0.3,2.5-0.3s1.9,0.1,2,0.2c0.2,0.1,0.3,0.5,0.3,1L1021,971.8L1021,971.8z M1009.6,957.5
			l-9.9,14.3h9.9V957.5z"/>
		<path class="st4" d="M1055.8,941c2.8,0,5.3,1,7.6,3c2.3,2,4.1,4.8,5.2,8.3c1.2,3.5,1.8,7.6,1.8,12.4c0,8-1.5,14-4.4,18.1
			c-2.9,4.1-6.5,6.2-10.6,6.2c-3.9,0-7.4-1.9-10.2-5.9c-2.9-3.9-4.3-9.9-4.3-17.9s1.4-14,4.2-18.1C1048,943.1,1051.5,941,1055.8,941
			z M1057.9,948.5c0-1.4-0.2-2.3-0.5-2.9c-0.4-0.5-1-0.8-1.8-0.8c-1.6,0-2.4,1.2-2.4,3.7v33.9c0,1.9,0.7,2.9,2.3,2.9
			c0.7,0,1.3-0.3,1.8-0.9c0.4-0.5,0.7-1.2,0.7-2L1057.9,948.5L1057.9,948.5z"/>
		<path class="st4" d="M1224.2,968.1v-6.3h12.7v6.3H1224.2z"/>
		<path class="st4" d="M1505.8,968.1v-6.3h12.7v6.3H1505.8z"/>
		<path class="st4" d="M1366.7,968.1v-6.3h12.7v6.3H1366.7z"/>
	</g>
	<g>
		<path class="st4" d="M1482.2,215.9c1.9-0.6,3.6-0.9,4.9-0.9c0.7,0,1,0.3,1,1v1.2c0,0.5-0.1,0.8-0.3,1c-0.2,0.2-0.7,0.5-1.5,0.7
			c-1,0.4-2.5,1.2-4.2,2.4c-1.8,1.2-3.5,2.8-5.2,4.8c-1.3,1.6-2.1,2.4-2.3,2.5c-0.2,0.1-0.7,0.2-1.2,0.2h-2.7v-42.3
			c0-0.5-0.4-0.8-1.1-1.2c-0.6-0.3-1-0.6-1.1-0.8c-0.1-0.3-0.2-1.1-0.2-2.4c0-0.5,0.4-0.7,1.1-0.7h14.8c0.6,0,1,0.1,1.1,0.3
			s0.2,0.6,0.2,1.3c0,1-0.1,1.6-0.2,1.8s-0.6,0.5-1.4,0.6c-1.2,0.3-1.8,0.8-1.8,1.4L1482.2,215.9L1482.2,215.9z"/>
		<path class="st4" d="M1434.8,229c-2.8,0-5.3-1-7.6-3.1c-2.3-2-4.1-4.8-5.2-8.3c-1.2-3.5-1.7-7.6-1.7-12.4c0-7.9,1.4-14,4.4-18.1
			c2.9-4.1,6.5-6.1,10.6-6.1c4,0,7.4,2,10.2,5.9c2.9,3.9,4.3,9.9,4.3,17.9s-1.4,14-4.2,18.1C1442.7,226.9,1439.1,229,1434.8,229z
			 M1432.8,221.5c0,1.4,0.2,2.3,0.5,2.9c0.4,0.5,0.9,0.8,1.8,0.8c1.6,0,2.4-1.2,2.4-3.7v-33.9c0-1.9-0.7-2.9-2.3-2.9
			c-0.7,0-1.3,0.3-1.8,0.8c-0.4,0.6-0.7,1.2-0.7,2L1432.8,221.5L1432.8,221.5z"/>
		<path class="st4" d="M1346.3,190.1h-16.2c-0.7,0-1.3,0.3-1.7,0.7c-0.4,0.5-0.8,1.4-1.1,2.8c-0.1,0.6-0.3,0.9-0.6,1.1
			c-0.3,0.2-0.9,0.3-1.8,0.3c-1.3,0-2-0.3-2-0.8c0-0.2,0-0.4,0.1-0.6c0.1-0.5,0.3-1.8,0.7-3.8c0.4-2.1,0.8-4,1.1-5.7
			c0.4-1.6,0.7-2.5,0.8-2.7c0.2-0.1,0.7-0.2,1.5-0.2h25.5v6.8c0,1-0.9,2.2-2.7,3.6c-0.9,0.7-3,3-6.3,6.7s-5.4,6.8-6.4,9.1
			s-1.4,5.5-1.4,9.4c0,3.3,0.3,5.4,1,6.4c0.7,0.9,1.7,1.4,3,1.4c1,0,1.8-0.3,2.3-0.8c0.6-0.5,0.8-1.2,0.8-2c0-0.5,0-1-0.2-1.7
			c-0.1-0.8-0.2-1.7-0.2-2.5c0-1.8,0.4-3.2,1.3-4.1c0.9-1,2-1.5,3.4-1.5c1.5,0,2.6,0.5,3.5,1.6c0.8,1,1.3,2.3,1.3,3.8
			c0,3.1-1.3,5.7-3.8,7.9c-2.5,2.1-5.9,3.2-10.2,3.2c-4.3,0-7.9-1.2-10.7-3.7c-2.8-2.5-4.2-5.7-4.2-9.6c0-2.2,0.5-4.3,1.5-6.3
			s2.3-3.8,4-5.3s4.2-3.5,7.5-5.8C1340.9,194.7,1344.2,192.1,1346.3,190.1z"/>
		<path class="st4" d="M1292.4,229c-2.8,0-5.3-1-7.6-3.1c-2.3-2-4.1-4.8-5.2-8.3c-1.2-3.5-1.8-7.6-1.8-12.4c0-8,1.5-14,4.4-18.1
			s6.5-6.2,10.6-6.2c3.9,0,7.4,2,10.2,5.9c2.9,3.9,4.3,9.9,4.3,17.9s-1.4,14-4.2,18.1C1300.3,226.9,1296.7,229,1292.4,229z
			 M1290.4,221.5c0,1.4,0.2,2.3,0.5,2.9c0.4,0.5,0.9,0.8,1.8,0.8c1.6,0,2.4-1.2,2.4-3.7v-33.9c0-1.9-0.7-2.9-2.2-2.9
			c-0.7,0-1.3,0.3-1.8,0.8c-0.5,0.6-0.7,1.2-0.7,2L1290.4,221.5L1290.4,221.5z"/>
		<path class="st4" d="M1192,206.7c-7.7-1.8-11.6-5.9-11.6-12.3c0-2.7,0.7-5.1,2.1-7.2c1.4-2,3.4-3.6,5.9-4.7
			c2.5-1.1,5.1-1.7,7.9-1.7c3.8,0,6.8,1,9.1,3.1c2.3,2.1,3.4,4.6,3.4,7.3c0,1.4-0.4,2.6-1.2,3.6c-0.8,1-1.9,1.5-3.4,1.5
			c-1.4,0-2.5-0.4-3.3-1.3c-0.8-0.9-1.2-2-1.2-3.3c0-0.5,0.1-1.4,0.3-2.7c0.1-0.6,0.2-1.1,0.2-1.5c0-0.8-0.3-1.6-0.9-2.2
			c-0.6-0.6-1.4-0.9-2.4-0.9c-1.3,0-2.3,0.5-3,1.5c-0.6,1-1,2.7-1,4.9c0,0.6,0,1.2,0.1,1.8l0.4,7.2c0.3,1.4,0.9,2.5,1.6,3.1
			c0.7,0.7,1.5,1.1,2.3,1.2c0.8,0.1,2.1,0.2,3.9,0.2h0.9c0.7,0,1,0.3,1,0.8l0.1,1.3c0,0.1,0,0.3,0,0.4c0,0.9-0.5,1.3-1.4,1.3
			c-2.5,0-4.2,0.2-5.3,0.6c-1.1,0.4-1.8,1-2.1,1.7c-0.4,0.8-0.5,2.5-0.5,5.1c0,3.7,0.2,6.2,0.6,7.4s1.3,1.8,2.7,1.8
			c0.8,0,1.5-0.2,2.1-0.7s0.9-1.1,0.9-1.9c0-0.5-0.1-1.2-0.3-2.2c-0.3-1.3-0.4-2.3-0.4-3c0-1.1,0.4-2,1.3-2.7c0.8-0.7,1.9-1,3-1
			c1.4,0,2.6,0.5,3.4,1.6c0.8,1,1.2,2.3,1.2,3.8c0,2.7-1.1,5.1-3.5,7.1c-2.3,2-5.4,3-9.3,3c-4.5,0-8-1.2-10.3-3.7s-3.5-5.3-3.5-8.3
			c0-2.3,0.8-4.4,2.4-6.3c1.6-1.8,3.9-3.2,6.9-4L1192,206.7z"/>
		<path class="st4" d="M1149.4,229c-2.8,0-5.3-1-7.6-3.1c-2.3-2-4.1-4.8-5.2-8.3c-1.2-3.5-1.7-7.6-1.7-12.4c0-7.9,1.4-14,4.4-18
			c2.9-4.1,6.4-6.2,10.6-6.2c4,0,7.4,2,10.2,5.9c2.9,3.9,4.3,9.9,4.3,17.9s-1.4,14-4.3,18.1C1157.3,226.9,1153.7,229,1149.4,229z
			 M1147.4,221.5c0,1.4,0.2,2.3,0.6,2.9c0.3,0.5,0.9,0.8,1.8,0.8c1.6,0,2.4-1.2,2.4-3.7v-33.9c0-1.9-0.7-2.9-2.3-2.9
			c-0.7,0-1.3,0.3-1.8,0.8c-0.4,0.6-0.7,1.2-0.7,2V221.5z"/>
		<path class="st4" d="M1088.1,201.9v6.3h-12.7v-6.3H1088.1z"/>
		<path class="st4" d="M1043.5,198.2h-2.7c-0.7,0-1.1-0.1-1.3-0.3c-0.2-0.2-0.3-0.6-0.3-1.3v-1.7c0-0.5,0.1-0.9,0.3-1
			c0.2-0.2,0.6-0.3,1.2-0.3h2.9v-5.5c0-1.3-0.6-2.3-1.8-2.9c-0.7-0.3-1-0.8-1-1.6v-1.3c0-0.5,0.1-0.7,0.3-0.8
			c0.2-0.1,0.6-0.2,1.2-0.2h13.6c0.7,0,1,0.1,1.2,0.3s0.2,0.9,0.2,2.1c0,0.7-0.3,1.2-1,1.6c-0.8,0.5-1.2,1-1.2,1.8v6.6h12.8
			c0.7,0,1.1,0.1,1.2,0.2c0.1,0.1,0.2,0.5,0.2,1v3.4c0,0.3,0,0.6-0.1,0.8s-0.5,0.9-1.4,2.1l-18.1,26.3c-0.3,0.5-0.7,0.8-1.2,0.9
			c-0.5,0.2-1.3,0.3-2.6,0.3c-1.2,0-1.8-0.1-2-0.2c-0.2-0.1-0.3-0.5-0.3-1L1043.5,198.2L1043.5,198.2z M1055,212.6l9.9-14.4h-9.9
			V212.6z"/>
		<path class="st4" d="M1008.7,229c-2.8,0-5.3-1-7.6-3.1c-2.3-2-4.1-4.8-5.2-8.3c-1.1-3.5-1.7-7.6-1.7-12.4c0-7.9,1.5-14,4.4-18.1
			s6.5-6.1,10.6-6.1c4,0,7.4,2,10.2,5.9c2.9,3.9,4.3,9.8,4.3,17.9c0,8-1.4,14-4.3,18.1C1016.6,226.9,1013,229,1008.7,229z
			 M1006.7,221.5c0,1.4,0.2,2.4,0.5,2.9c0.4,0.5,0.9,0.8,1.8,0.8c1.6,0,2.4-1.2,2.4-3.7v-33.9c0-1.9-0.8-2.9-2.3-2.9
			c-0.7,0-1.3,0.3-1.8,0.8c-0.4,0.6-0.7,1.2-0.7,2L1006.7,221.5L1006.7,221.5z"/>
		<path class="st4" d="M921.7,228h-15.5c-0.7,0-1.2,0.1-1.5,0.4c-0.4,0.4-0.6,0.6-0.8,0.6c-0.2,0.1-0.6,0.1-1.1,0.1
			c-0.9,0-1.4-0.1-1.7-0.2c-0.2-0.1-0.3-0.4-0.3-0.7c0-0.1,0-0.5,0.1-1l0.6-6.3c0.1-0.6,0.2-1,0.3-1.1c0.1-0.2,0.5-0.2,1.2-0.2h15.2
			l0.6-9c-2.1,1.3-4.5,1.9-7.1,1.9c-4.2,0-7.7-1.4-10.5-4.3c-2.7-2.9-4.1-6.6-4.1-11.1c0-4.9,1.6-8.8,4.7-11.8c3.1-3,7-4.5,11.6-4.5
			c3.8,0,6.8,1.1,8.9,3.3c2.1,2.2,3.1,4.5,3.1,6.9c0,1.4-0.4,2.5-1.2,3.6c-0.8,1-2,1.6-3.4,1.6c-1.3,0-2.3-0.4-3.1-1.2
			s-1.2-1.9-1.2-3.3c0-0.6,0.1-1.3,0.3-1.9c0.3-1.2,0.4-1.9,0.4-2.3c0-0.6-0.3-1.3-0.8-1.9c-0.6-0.6-1.4-0.9-2.6-0.9
			c-1,0-1.9,0.2-2.5,0.7c-0.7,0.5-1.2,1.2-1.4,2c-0.2,0.9-0.3,2.7-0.3,5.3l0.1,5.3c0,4,0.3,6.7,1,8.2s1.8,2.2,3.5,2.2
			c2.3,0,3.9-1.3,4.8-4c0.2-0.6,0.4-1,0.7-1.2c0.2-0.2,0.6-0.3,1.2-0.3l1.4-0.1c0.8,0,1.2,0.3,1.2,0.8c0,0.2,0,0.4,0,0.8L921.7,228z
			"/>
		<path class="st4" d="M865.8,229c-2.7,0-5.3-1-7.6-3.1c-2.3-2-4.1-4.8-5.2-8.3c-1.2-3.5-1.7-7.6-1.7-12.4c0-7.9,1.4-14,4.4-18
			c2.9-4.1,6.4-6.2,10.6-6.2c4,0,7.4,2,10.2,5.9c2.9,3.9,4.3,9.9,4.3,17.9s-1.4,14-4.3,18.1C873.7,226.9,870.1,229,865.8,229z
			 M863.8,221.5c0,1.4,0.2,2.3,0.5,2.9c0.3,0.5,1,0.8,1.8,0.8c1.6,0,2.4-1.2,2.4-3.7v-33.9c0-1.9-0.8-2.9-2.3-2.9
			c-0.7,0-1.3,0.3-1.8,0.8c-0.4,0.6-0.7,1.2-0.7,2L863.8,221.5L863.8,221.5z"/>
		<path class="st4" d="M1226.8,201.9v6.3h-12.7v-6.3H1226.8z"/>
		<path class="st4" d="M1504.6,201.9v6.3h-12.7v-6.3H1504.6z"/>
		<path class="st4" d="M1369.8,201.9v6.3h-12.7v-6.3H1369.8z"/>
		<path class="st4" d="M343.7,215.9c1.9-0.6,3.6-0.9,4.9-0.9c0.7,0,1,0.3,1,1v1.2c0,0.5-0.1,0.8-0.3,1c-0.2,0.2-0.7,0.5-1.5,0.7
			c-1,0.4-2.4,1.2-4.2,2.4c-1.8,1.2-3.5,2.8-5.2,4.8c-1.3,1.6-2.1,2.4-2.3,2.5c-0.3,0.1-0.6,0.2-1.2,0.2h-2.7v-42.3
			c0-0.5-0.4-0.8-1.1-1.2c-0.6-0.3-1-0.6-1.2-0.8c-0.1-0.3-0.2-1.1-0.2-2.4c0-0.5,0.4-0.7,1.1-0.7h14.8c0.6,0,1,0.1,1.1,0.3
			s0.2,0.6,0.2,1.3c0,1-0.1,1.6-0.2,1.8s-0.5,0.5-1.3,0.6c-1.2,0.3-1.8,0.8-1.8,1.4v29.1H343.7z"/>
		<path class="st4" d="M296.3,229c-2.7,0-5.3-1-7.6-3.1c-2.3-2-4-4.8-5.2-8.3s-1.7-7.6-1.7-12.4c0-7.9,1.4-14,4.4-18.1
			c2.9-4.1,6.5-6.1,10.7-6.1c3.9,0,7.4,2,10.2,5.9c2.9,3.9,4.3,9.9,4.3,17.9s-1.4,14-4.2,18.1C304.2,226.9,300.6,229,296.3,229z
			 M294.3,221.5c0,1.4,0.2,2.3,0.5,2.9c0.4,0.5,1,0.8,1.8,0.8c1.6,0,2.4-1.2,2.4-3.7v-33.9c0-1.9-0.7-2.9-2.2-2.9
			c-0.7,0-1.3,0.3-1.8,0.8c-0.5,0.6-0.7,1.2-0.7,2L294.3,221.5L294.3,221.5z"/>
		<path class="st4" d="M494.5,190.1h-16.2c-0.7,0-1.3,0.3-1.7,0.7c-0.4,0.5-0.8,1.4-1.1,2.8c-0.1,0.6-0.3,0.9-0.6,1.1
			c-0.3,0.2-0.9,0.3-1.8,0.3c-1.3,0-2-0.3-2-0.8c0-0.2,0-0.4,0.1-0.6c0.1-0.5,0.3-1.8,0.7-3.8c0.4-2.1,0.8-4,1.1-5.7
			c0.4-1.6,0.7-2.5,0.8-2.7c0.2-0.1,0.7-0.2,1.5-0.2h25.5v6.8c0,1-0.9,2.2-2.7,3.6c-0.9,0.7-3,3-6.3,6.7s-5.4,6.8-6.4,9.1
			s-1.4,5.5-1.4,9.4c0,3.3,0.3,5.4,1,6.4c0.7,0.9,1.7,1.4,3,1.4c1,0,1.8-0.3,2.3-0.8c0.6-0.5,0.8-1.2,0.8-2c0-0.5-0.1-1-0.2-1.7
			c-0.1-0.8-0.2-1.7-0.2-2.5c0-1.8,0.5-3.2,1.4-4.1c0.9-1,2-1.5,3.4-1.5c1.5,0,2.6,0.5,3.5,1.6c0.8,1,1.3,2.3,1.3,3.8
			c0,3.1-1.3,5.7-3.8,7.9c-2.5,2.1-5.9,3.2-10.2,3.2c-4.4,0-7.9-1.2-10.7-3.7c-2.8-2.5-4.2-5.7-4.2-9.6c0-2.2,0.5-4.3,1.5-6.3
			s2.3-3.8,4-5.3s4.2-3.5,7.5-5.8C489.1,194.7,492.4,192.1,494.5,190.1z"/>
		<path class="st4" d="M440.7,229c-2.8,0-5.3-1-7.6-3.1c-2.3-2-4-4.8-5.2-8.3s-1.8-7.6-1.8-12.4c0-8,1.4-14,4.4-18.1
			c2.9-4.1,6.5-6.2,10.7-6.2c4,0,7.4,2,10.2,5.9c2.9,3.9,4.3,9.9,4.3,17.9s-1.4,14-4.2,18.1C448.5,226.9,445,229,440.7,229z
			 M438.6,221.5c0,1.4,0.2,2.3,0.5,2.9c0.3,0.5,0.9,0.8,1.8,0.8c1.6,0,2.4-1.2,2.4-3.7v-33.9c0-1.9-0.7-2.9-2.2-2.9
			c-0.7,0-1.3,0.3-1.8,0.8c-0.5,0.6-0.7,1.2-0.7,2L438.6,221.5L438.6,221.5z"/>
		<path class="st4" d="M625.7,206.7c-7.7-1.8-11.6-5.9-11.6-12.3c0-2.7,0.7-5.1,2.1-7.2c1.4-2,3.4-3.6,5.9-4.7
			c2.5-1.1,5.1-1.7,7.9-1.7c3.8,0,6.8,1,9,3.1c2.3,2.1,3.4,4.6,3.4,7.3c0,1.4-0.4,2.6-1.2,3.6s-1.9,1.5-3.4,1.5
			c-1.4,0-2.5-0.4-3.3-1.3c-0.8-0.9-1.2-2-1.2-3.3c0-0.5,0.1-1.4,0.4-2.7c0.1-0.6,0.2-1.1,0.2-1.5c0-0.8-0.3-1.6-0.9-2.2
			c-0.6-0.6-1.4-0.9-2.4-0.9c-1.4,0-2.3,0.5-3,1.5c-0.6,1-1,2.7-1,4.9c0,0.6,0,1.2,0.1,1.8l0.4,7.2c0.3,1.4,0.8,2.5,1.6,3.1
			c0.7,0.7,1.5,1.1,2.3,1.2c0.8,0.1,2.1,0.2,3.8,0.2h1c0.6,0,1,0.3,1,0.8l0.1,1.3c0,0.1,0,0.3,0,0.4c0,0.9-0.5,1.3-1.4,1.3
			c-2.5,0-4.2,0.2-5.3,0.6c-1.1,0.4-1.8,1-2.1,1.7c-0.4,0.8-0.6,2.5-0.6,5.1c0,3.7,0.2,6.2,0.7,7.4c0.4,1.2,1.3,1.8,2.7,1.8
			c0.8,0,1.5-0.2,2.1-0.7s0.9-1.1,0.9-1.9c0-0.5-0.1-1.2-0.3-2.2c-0.3-1.3-0.4-2.3-0.4-3c0-1.1,0.4-2,1.3-2.7c0.8-0.7,1.8-1,3-1
			c1.4,0,2.6,0.5,3.4,1.6c0.8,1,1.2,2.3,1.2,3.8c0,2.7-1.2,5.1-3.4,7.1c-2.3,2-5.4,3-9.3,3c-4.5,0-8-1.2-10.3-3.7s-3.5-5.3-3.5-8.3
			c0-2.3,0.8-4.4,2.4-6.3c1.6-1.8,3.9-3.2,6.9-4L625.7,206.7z"/>
		<path class="st4" d="M583.2,229c-2.7,0-5.3-1-7.6-3.1c-2.3-2-4-4.8-5.2-8.3s-1.7-7.6-1.7-12.4c0-7.9,1.4-14,4.4-18
			c2.9-4.1,6.5-6.2,10.7-6.2c4,0,7.4,2,10.2,5.9c2.9,3.9,4.3,9.9,4.3,17.9s-1.4,14-4.2,18.1C591.1,226.9,587.5,229,583.2,229z
			 M581.2,221.5c0,1.4,0.2,2.3,0.5,2.9c0.4,0.5,0.9,0.8,1.8,0.8c1.6,0,2.4-1.2,2.4-3.7v-33.9c0-1.9-0.7-2.9-2.2-2.9
			c-0.7,0-1.3,0.3-1.8,0.8c-0.5,0.6-0.7,1.2-0.7,2V221.5z"/>
		<path class="st4" d="M701.5,201.9v6.3h-12.7v-6.3H701.5z"/>
		<path class="st4" d="M760.3,198.2h-2.7c-0.7,0-1.1-0.1-1.3-0.3s-0.3-0.6-0.3-1.3v-1.7c0-0.5,0.1-0.9,0.3-1
			c0.2-0.2,0.6-0.3,1.2-0.3h2.9v-5.5c0-1.3-0.6-2.3-1.8-2.9c-0.6-0.3-1-0.8-1-1.6v-1.3c0-0.5,0.1-0.7,0.3-0.8s0.6-0.2,1.2-0.2h13.6
			c0.7,0,1.1,0.1,1.2,0.3c0.1,0.2,0.2,0.9,0.2,2.1c0,0.7-0.3,1.2-1,1.6c-0.8,0.5-1.2,1-1.2,1.8v6.6h12.8c0.7,0,1.1,0.1,1.2,0.2
			c0.1,0.1,0.2,0.5,0.2,1v3.4c0,0.3,0,0.6-0.1,0.8c0,0.2-0.5,0.9-1.4,2.1l-18.2,26.3c-0.3,0.5-0.7,0.8-1.2,0.9
			c-0.5,0.2-1.3,0.3-2.5,0.3s-1.8-0.1-2-0.2c-0.2-0.1-0.3-0.5-0.3-1v-29.3H760.3z M771.8,212.6l9.9-14.4h-9.9V212.6z"/>
		<path class="st4" d="M725.5,229c-2.8,0-5.3-1-7.6-3.1c-2.3-2-4.1-4.8-5.2-8.3c-1.2-3.5-1.7-7.6-1.7-12.4c0-7.9,1.4-14,4.4-18.1
			c2.9-4.1,6.5-6.1,10.7-6.1c4,0,7.4,2,10.2,5.9c2.9,3.9,4.3,9.8,4.3,17.9c0,8-1.4,14-4.2,18.1C733.4,226.9,729.8,229,725.5,229z
			 M723.5,221.5c0,1.4,0.2,2.4,0.5,2.9s0.9,0.8,1.8,0.8c1.6,0,2.4-1.2,2.4-3.7v-33.9c0-1.9-0.8-2.9-2.3-2.9c-0.7,0-1.3,0.3-1.8,0.8
			c-0.4,0.6-0.6,1.2-0.6,2L723.5,221.5L723.5,221.5z"/>
		<path class="st4" d="M557.1,201.9v6.3h-12.7v-6.3H557.1z"/>
		<path class="st4" d="M275.6,201.9v6.3h-12.7v-6.3H275.6z"/>
		<path class="st4" d="M414.6,201.9v6.3H402v-6.3H414.6z"/>
	</g>
</g>
<g>
	<rect x="390.2" y="58.5" class="st5" width="2.9" height="1053"/>
	<rect x="532.4" y="58.5" class="st5" width="3" height="1053"/>
	<g>
		<rect x="674.7" y="58.5" class="st5" width="3" height="1053"/>
		<rect x="816.9" y="58.5" class="st5" width="2.9" height="1053"/>
	</g>
	<rect x="959.1" y="58.5" class="st5" width="2.9" height="1053"/>
	<rect x="1101.3" y="58.5" class="st5" width="3" height="1053"/>
	<rect x="1243.6" y="58.5" class="st5" width="3" height="1053"/>
	<rect x="1385.8" y="58.5" class="st5" width="3" height="1053"/>
	<g>
		<rect x="251.6" y="57.3" class="st5" width="3" height="1053"/>
	</g>
	<g>
		<rect x="1526.8" y="58.5" class="st5" width="2.9" height="1053"/>
	</g>
</g>
<g>
	<g>
		<g>
			<g>
				<g>
					<g>
						<rect x="343.2" y="52.2" class="st6" width="8.7" height="44.6"/>
						<rect x="428.6" y="52.2" class="st6" width="8.7" height="44.6"/>
						<rect x="400.2" y="52.2" class="st6" width="8.7" height="44.6"/>
						<rect x="371.7" y="52.2" class="st6" width="8.7" height="44.6"/>
					</g>
					<g>
						<rect x="485.7" y="52.2" class="st6" width="8.7" height="44.6"/>
						<rect x="571.1" y="52.2" class="st6" width="8.7" height="44.6"/>
						<rect x="542.7" y="52.2" class="st6" width="8.7" height="44.6"/>
						<rect x="514.2" y="52.2" class="st6" width="8.7" height="44.6"/>
					</g>
				</g>
				<g>
					<g>
						<rect x="629.3" y="52.2" class="st6" width="8.7" height="44.6"/>
						<rect x="714.7" y="52.2" class="st6" width="8.7" height="44.6"/>
						<rect x="686.2" y="52.2" class="st6" width="8.7" height="44.6"/>
						<rect x="657.8" y="52.2" class="st6" width="8.7" height="44.6"/>
					</g>
					<g>
						<rect x="771.8" y="52.2" class="st6" width="8.7" height="44.6"/>
						<rect x="857.2" y="52.2" class="st6" width="8.7" height="44.6"/>
						<rect x="828.7" y="52.2" class="st6" width="8.7" height="44.6"/>
						<rect x="800.3" y="52.2" class="st6" width="8.7" height="44.6"/>
					</g>
				</g>
			</g>
			<g>
				<g>
					<g>
						<rect x="912.1" y="52.2" class="st6" width="8.7" height="44.6"/>
						<rect x="997.5" y="52.2" class="st6" width="8.7" height="44.6"/>
						<rect x="969.1" y="52.2" class="st6" width="8.7" height="44.6"/>
						<rect x="940.6" y="52.2" class="st6" width="8.7" height="44.6"/>
					</g>
					<g>
						<rect x="1054.6" y="52.2" class="st6" width="8.7" height="44.6"/>
						<rect x="1140" y="52.2" class="st6" width="8.7" height="44.6"/>
						<rect x="1111.6" y="52.2" class="st6" width="8.7" height="44.6"/>
						<rect x="1083.1" y="52.2" class="st6" width="8.7" height="44.6"/>
					</g>
				</g>
				<g>
					<g>
						<rect x="1198.2" y="52.2" class="st6" width="8.7" height="44.6"/>
						<rect x="1283.6" y="52.2" class="st6" width="8.7" height="44.6"/>
						<rect x="1255.1" y="52.2" class="st6" width="8.7" height="44.6"/>
						<rect x="1226.7" y="52.2" class="st6" width="8.7" height="44.6"/>
					</g>
					<g>
						<rect x="1340.7" y="52.2" class="st6" width="8.7" height="44.6"/>
						<rect x="1426.1" y="52.2" class="st6" width="8.7" height="44.6"/>
						<rect x="1397.6" y="52.2" class="st6" width="8.7" height="44.6"/>
						<rect x="1369.2" y="52.2" class="st6" width="8.7" height="44.6"/>
					</g>
				</g>
			</g>
		</g>
		<g>
			<g>
				<rect x="206.8" y="52.2" class="st6" width="8.7" height="44.6"/>
				<rect x="292.2" y="52.2" class="st6" width="8.7" height="44.6"/>
				<rect x="263.7" y="52.2" class="st6" width="8.7" height="44.6"/>
				<rect x="235.2" y="52.2" class="st6" width="8.7" height="44.6"/>
			</g>
		</g>
		<g>
			<g>
				<rect x="1480.5" y="52.2" class="st6" width="8.7" height="44.6"/>
				<rect x="1565.8" y="52.2" class="st6" width="8.7" height="44.6"/>
				<rect x="1537.4" y="52.2" class="st6" width="8.7" height="44.6"/>
				<rect x="1508.9" y="52.2" class="st6" width="8.7" height="44.6"/>
			</g>
		</g>
	</g>
	<g>
		<g>
			<g>
				<g>
					<g>
						<rect x="343.2" y="1073.2" class="st6" width="8.7" height="44.6"/>
						<rect x="428.6" y="1073.2" class="st6" width="8.7" height="44.6"/>
						<rect x="400.2" y="1073.2" class="st6" width="8.7" height="44.6"/>
						<rect x="371.7" y="1073.2" class="st6" width="8.7" height="44.6"/>
					</g>
					<g>
						<rect x="485.7" y="1073.2" class="st6" width="8.7" height="44.6"/>
						<rect x="571.1" y="1073.2" class="st6" width="8.7" height="44.6"/>
						<rect x="542.7" y="1073.2" class="st6" width="8.7" height="44.6"/>
						<rect x="514.2" y="1073.2" class="st6" width="8.7" height="44.6"/>
					</g>
				</g>
				<g>
					<g>
						<rect x="629.3" y="1073.2" class="st6" width="8.7" height="44.6"/>
						<rect x="714.7" y="1073.2" class="st6" width="8.7" height="44.6"/>
						<rect x="686.2" y="1073.2" class="st6" width="8.7" height="44.6"/>
						<rect x="657.8" y="1073.2" class="st6" width="8.7" height="44.6"/>
					</g>
					<g>
						<rect x="771.8" y="1073.2" class="st6" width="8.7" height="44.6"/>
						<rect x="857.2" y="1073.2" class="st6" width="8.7" height="44.6"/>
						<rect x="828.7" y="1073.2" class="st6" width="8.7" height="44.6"/>
						<rect x="800.3" y="1073.2" class="st6" width="8.7" height="44.6"/>
					</g>
				</g>
			</g>
			<g>
				<g>
					<g>
						<rect x="912.1" y="1073.2" class="st6" width="8.7" height="44.6"/>
						<rect x="997.5" y="1073.2" class="st6" width="8.7" height="44.6"/>
						<rect x="969.1" y="1073.2" class="st6" width="8.7" height="44.6"/>
						<rect x="940.6" y="1073.2" class="st6" width="8.7" height="44.6"/>
					</g>
					<g>
						<rect x="1054.6" y="1073.2" class="st6" width="8.7" height="44.6"/>
						<rect x="1140" y="1073.2" class="st6" width="8.7" height="44.6"/>
						<rect x="1111.6" y="1073.2" class="st6" width="8.7" height="44.6"/>
						<rect x="1083.1" y="1073.2" class="st6" width="8.7" height="44.6"/>
					</g>
				</g>
				<g>
					<g>
						<rect x="1198.2" y="1073.2" class="st6" width="8.7" height="44.6"/>
						<rect x="1283.6" y="1073.2" class="st6" width="8.7" height="44.6"/>
						<rect x="1255.1" y="1073.2" class="st6" width="8.7" height="44.6"/>
						<rect x="1226.7" y="1073.2" class="st6" width="8.7" height="44.6"/>
					</g>
					<g>
						<rect x="1340.7" y="1073.2" class="st6" width="8.7" height="44.6"/>
						<rect x="1426.1" y="1073.2" class="st6" width="8.7" height="44.6"/>
						<rect x="1397.6" y="1073.2" class="st6" width="8.7" height="44.6"/>
						<rect x="1369.2" y="1073.2" class="st6" width="8.7" height="44.6"/>
					</g>
				</g>
			</g>
		</g>
		<g>
			<g>
				<rect x="206.8" y="1073.2" class="st6" width="8.7" height="44.6"/>
				<rect x="292.2" y="1073.2" class="st6" width="8.7" height="44.6"/>
				<rect x="263.7" y="1073.2" class="st6" width="8.7" height="44.6"/>
				<rect x="235.2" y="1073.2" class="st6" width="8.7" height="44.6"/>
			</g>
		</g>
		<g>
			<g>
				<rect x="1480.5" y="1073.2" class="st6" width="8.7" height="44.6"/>
				<rect x="1565.8" y="1073.2" class="st6" width="8.7" height="44.6"/>
				<rect x="1537.4" y="1073.2" class="st6" width="8.7" height="44.6"/>
				<rect x="1508.9" y="1073.2" class="st6" width="8.7" height="44.6"/>
			</g>
		</g>
	</g>
</g>
<g>
	<g>
		<g>
			<g>
				<g>
					<g>
						<rect x="343.2" y="425.2" class="st6" width="8.7" height="44.6"/>
						<rect x="428.6" y="425.2" class="st6" width="8.7" height="44.6"/>
						<rect x="400.2" y="425.2" class="st6" width="8.7" height="44.6"/>
						<rect x="371.7" y="425.2" class="st6" width="8.7" height="44.6"/>
					</g>
					<g>
						<rect x="485.7" y="425.2" class="st6" width="8.7" height="44.6"/>
						<rect x="571.1" y="425.2" class="st6" width="8.7" height="44.6"/>
						<rect x="542.7" y="425.2" class="st6" width="8.7" height="44.6"/>
						<rect x="514.2" y="425.2" class="st6" width="8.7" height="44.6"/>
					</g>
				</g>
				<g>
					<g>
						<rect x="629.3" y="425.2" class="st6" width="8.7" height="44.6"/>
						<rect x="714.7" y="425.2" class="st6" width="8.7" height="44.6"/>
						<rect x="686.2" y="425.2" class="st6" width="8.7" height="44.6"/>
						<rect x="657.8" y="425.2" class="st6" width="8.7" height="44.6"/>
					</g>
					<g>
						<rect x="771.8" y="425.2" class="st6" width="8.7" height="44.6"/>
						<rect x="857.2" y="425.2" class="st6" width="8.7" height="44.6"/>
						<rect x="828.7" y="425.2" class="st6" width="8.7" height="44.6"/>
						<rect x="800.3" y="425.2" class="st6" width="8.7" height="44.6"/>
					</g>
				</g>
			</g>
			<g>
				<g>
					<g>
						<rect x="912.1" y="425.2" class="st6" width="8.7" height="44.6"/>
						<rect x="997.5" y="425.2" class="st6" width="8.7" height="44.6"/>
						<rect x="969.1" y="425.2" class="st6" width="8.7" height="44.6"/>
						<rect x="940.6" y="425.2" class="st6" width="8.7" height="44.6"/>
					</g>
					<g>
						<rect x="1054.6" y="425.2" class="st6" width="8.7" height="44.6"/>
						<rect x="1140" y="425.2" class="st6" width="8.7" height="44.6"/>
						<rect x="1111.6" y="425.2" class="st6" width="8.7" height="44.6"/>
						<rect x="1083.1" y="425.2" class="st6" width="8.7" height="44.6"/>
					</g>
				</g>
				<g>
					<g>
						<rect x="1198.2" y="425.2" class="st6" width="8.7" height="44.6"/>
						<rect x="1283.6" y="425.2" class="st6" width="8.7" height="44.6"/>
						<rect x="1255.1" y="425.2" class="st6" width="8.7" height="44.6"/>
						<rect x="1226.7" y="425.2" class="st6" width="8.7" height="44.6"/>
					</g>
					<g>
						<rect x="1340.7" y="425.2" class="st6" width="8.7" height="44.6"/>
						<rect x="1426.1" y="425.2" class="st6" width="8.7" height="44.6"/>
						<rect x="1397.6" y="425.2" class="st6" width="8.7" height="44.6"/>
						<rect x="1369.2" y="425.2" class="st6" width="8.7" height="44.6"/>
					</g>
				</g>
			</g>
		</g>
		<g>
			<g>
				<rect x="206.8" y="425.2" class="st6" width="8.7" height="44.6"/>
				<rect x="292.2" y="425.2" class="st6" width="8.7" height="44.6"/>
				<rect x="263.7" y="425.2" class="st6" width="8.7" height="44.6"/>
				<rect x="235.2" y="425.2" class="st6" width="8.7" height="44.6"/>
			</g>
		</g>
		<g>
			<g>
				<rect x="1480.5" y="425.2" class="st6" width="8.7" height="44.6"/>
				<rect x="1565.8" y="425.2" class="st6" width="8.7" height="44.6"/>
				<rect x="1537.4" y="425.2" class="st6" width="8.7" height="44.6"/>
				<rect x="1508.9" y="425.2" class="st6" width="8.7" height="44.6"/>
			</g>
		</g>
	</g>
	<g>
		<g>
			<g>
				<g>
					<g>
						<rect x="343.2" y="700.2" class="st6" width="8.7" height="44.6"/>
						<rect x="428.6" y="700.2" class="st6" width="8.7" height="44.6"/>
						<rect x="400.2" y="700.2" class="st6" width="8.7" height="44.6"/>
						<rect x="371.7" y="700.2" class="st6" width="8.7" height="44.6"/>
					</g>
					<g>
						<rect x="485.7" y="700.2" class="st6" width="8.7" height="44.6"/>
						<rect x="571.1" y="700.2" class="st6" width="8.7" height="44.6"/>
						<rect x="542.7" y="700.2" class="st6" width="8.7" height="44.6"/>
						<rect x="514.2" y="700.2" class="st6" width="8.7" height="44.6"/>
					</g>
				</g>
				<g>
					<g>
						<rect x="629.3" y="700.2" class="st6" width="8.7" height="44.6"/>
						<rect x="714.7" y="700.2" class="st6" width="8.7" height="44.6"/>
						<rect x="686.2" y="700.2" class="st6" width="8.7" height="44.6"/>
						<rect x="657.8" y="700.2" class="st6" width="8.7" height="44.6"/>
					</g>
					<g>
						<rect x="771.8" y="700.2" class="st6" width="8.7" height="44.6"/>
						<rect x="857.2" y="700.2" class="st6" width="8.7" height="44.6"/>
						<rect x="828.7" y="700.2" class="st6" width="8.7" height="44.6"/>
						<rect x="800.3" y="700.2" class="st6" width="8.7" height="44.6"/>
					</g>
				</g>
			</g>
			<g>
				<g>
					<g>
						<rect x="912.1" y="700.2" class="st6" width="8.7" height="44.6"/>
						<rect x="997.5" y="700.2" class="st6" width="8.7" height="44.6"/>
						<rect x="969.1" y="700.2" class="st6" width="8.7" height="44.6"/>
						<rect x="940.6" y="700.2" class="st6" width="8.7" height="44.6"/>
					</g>
					<g>
						<rect x="1054.6" y="700.2" class="st6" width="8.7" height="44.6"/>
						<rect x="1140" y="700.2" class="st6" width="8.7" height="44.6"/>
						<rect x="1111.6" y="700.2" class="st6" width="8.7" height="44.6"/>
						<rect x="1083.1" y="700.2" class="st6" width="8.7" height="44.6"/>
					</g>
				</g>
				<g>
					<g>
						<rect x="1198.2" y="700.2" class="st6" width="8.7" height="44.6"/>
						<rect x="1283.6" y="700.2" class="st6" width="8.7" height="44.6"/>
						<rect x="1255.1" y="700.2" class="st6" width="8.7" height="44.6"/>
						<rect x="1226.7" y="700.2" class="st6" width="8.7" height="44.6"/>
					</g>
					<g>
						<rect x="1340.7" y="700.2" class="st6" width="8.7" height="44.6"/>
						<rect x="1426.1" y="700.2" class="st6" width="8.7" height="44.6"/>
						<rect x="1397.6" y="700.2" class="st6" width="8.7" height="44.6"/>
						<rect x="1369.2" y="700.2" class="st6" width="8.7" height="44.6"/>
					</g>
				</g>
			</g>
		</g>
		<g>
			<g>
				<rect x="206.8" y="700.2" class="st6" width="8.7" height="44.6"/>
				<rect x="292.2" y="700.2" class="st6" width="8.7" height="44.6"/>
				<rect x="263.7" y="700.2" class="st6" width="8.7" height="44.6"/>
				<rect x="235.2" y="700.2" class="st6" width="8.7" height="44.6"/>
			</g>
		</g>
		<g>
			<g>
				<rect x="1480.5" y="700.2" class="st6" width="8.7" height="44.6"/>
				<rect x="1565.8" y="700.2" class="st6" width="8.7" height="44.6"/>
				<rect x="1537.4" y="700.2" class="st6" width="8.7" height="44.6"/>
				<rect x="1508.9" y="700.2" class="st6" width="8.7" height="44.6"/>
			</g>
		</g>
	</g>
</g>
<g>
	<rect x="43.9" y="50.6" class="st4" width="13.3" height="1068.8"/>
	<rect x="43.9" y="50.6" class="st4" width="1693.6" height="13.3"/>
	<rect x="43.9" y="1106.1" class="st4" width="1693.6" height="13.3"/>
	<rect x="1724.2" y="50.6" class="st4" width="13.3" height="1068.8"/>
</g>
<g>
	<rect x="43.9" y="512.1" class="st7" width="11.9" height="145.9"/>
	<rect x="1725.6" y="512.1" class="st7" width="11.9" height="145.9"/>
</g>
<rect x="182.3" y="50.6" class="st4" width="11.8" height="1056"/>
<rect x="1588.9" y="50.6" class="st4" width="11.8" height="1056"/>
</svg>
